<svg width="89" height="32" viewBox="0 0 89 32" fill="none" xmlns="http://www.w3.org/2000/svg">
<path d="M16.8232 19.1112C16.172 19.4668 15.8464 20.089 15.8464 20.8001C15.8464 21.4223 16.172 21.9557 16.7147 22.3112C17.3659 22.6668 18.1256 22.9334 19.211 22.9334C20.8391 22.9334 22.033 22.5779 22.9013 21.8668C23.7695 21.1557 24.2037 20.2668 24.3122 19.1112V18.5779H19.5366C18.3427 18.5779 17.4744 18.7557 16.8232 19.1112Z" fill="#3F3B3D"/>
<path d="M54.0512 19.1112C53.4 19.4668 53.0744 20.089 53.0744 20.8001C53.0744 21.4223 53.4 21.9557 53.9427 22.3112C54.5939 22.6668 55.3537 22.9334 56.439 22.9334C58.0671 22.9334 59.261 22.5779 60.1293 21.8668C60.9976 21.1557 61.4317 20.2668 61.5403 19.1112V18.5779H56.7646C55.5707 18.5779 54.7024 18.7557 54.0512 19.1112Z" fill="#3F3B3D"/>
<path d="M88.5659 14.7556C88.5659 10.8444 84.7671 7.82222 80.1 7.82222C79.6659 7.82222 79.1232 7.82222 78.689 7.91111C78.7976 7.64444 78.7976 7.28889 78.7976 7.02222C78.7976 3.82222 75.5415 1.24444 71.7427 1.24444C68.4866 1.24444 65.6646 3.02222 64.9049 5.51111C63.711 5.24444 62.5171 5.15556 61.3232 5.15556C60.1293 5.15556 58.9354 5.33333 57.7415 5.51111C57.0903 4.35556 55.5707 3.55556 53.9427 3.55556C52.9659 3.55556 52.0976 3.82222 51.3378 4.26667C50.7951 1.77778 48.1903 0 45.1512 0C42.0037 0 39.3988 1.86667 38.9646 4.35556C37.1195 3.11111 34.6232 2.4 32.1268 2.4C28.9793 2.4 26.1573 3.46667 24.2037 5.24444C22.7927 4.97778 21.3817 4.71111 19.8622 4.71111C17.0403 4.71111 14.4354 5.24444 12.1561 6.31111C11.0707 5.86667 9.87684 5.6 8.5744 5.6C4.1244 5.6 0.542694 8.62222 0.542694 12.1778C0.542694 14.2222 1.62806 16 3.36465 17.1556C3.36465 17.5111 3.25611 17.9556 3.25611 18.4C3.14757 25.9556 10.6366 32 19.8622 32C22.6842 32 25.289 31.4667 27.4598 30.4889C28.8707 31.1111 30.6073 31.4667 32.3439 31.4667C36.0342 31.4667 39.0732 29.8667 40.9183 27.4667C42.4378 28.8 44.5 29.6 46.7793 29.6C48.2988 29.6 49.8183 29.2444 51.0122 28.6222C53.6171 30.4889 57.0903 31.6444 60.672 31.6444C64.1451 31.6444 67.2927 30.6667 69.789 28.9778C71.3086 30.2222 73.3708 30.9333 75.7586 30.9333C80.5342 30.9333 84.2244 27.8222 84.2244 24C84.2244 22.9333 83.8988 21.9556 83.4647 21.0667C86.5037 20.0889 88.5659 17.6 88.5659 14.7556ZM30.0646 25.2444H28.0025C26.8085 25.2444 25.9403 25.0667 25.3976 24.6222C24.8549 24.1778 24.6378 23.6444 24.6378 22.8444C23.2268 24.5333 21.2732 25.4222 18.6683 25.4222C16.6061 25.4222 14.9781 25.0667 13.7842 24.2667C12.5903 23.4667 11.939 22.4 11.939 21.0667C11.939 19.5556 12.5903 18.4 13.8927 17.5111C15.1951 16.7111 17.1488 16.2667 19.6451 16.2667H24.2037V15.3778C24.2037 14.5778 23.8781 13.8667 23.1183 13.4222C22.3585 12.9778 21.3817 12.7111 20.1878 12.7111C19.1025 12.7111 18.1256 12.8889 17.4744 13.3333C16.7146 13.6889 16.2805 14.2222 16.172 14.9333H12.3732C12.5903 13.4222 13.35 12.2667 14.761 11.4667C16.172 10.6667 18.0171 10.2222 20.2964 10.2222C22.6842 10.2222 24.6378 10.6667 25.9403 11.6444C27.2427 12.5333 27.8939 13.9556 27.8939 15.6444V21.4222C27.8939 22.1333 28.3281 22.4889 29.0878 22.4889L30.0646 22.4C30.0646 22.4889 30.0646 25.2444 30.0646 25.2444ZM41.3525 13.3333H39.6159C37.9878 13.3333 36.9025 13.7778 36.1427 14.5778C35.3829 15.3778 35.0573 16.5333 35.0573 17.7778V25.1556H31.2585V10.4H34.7317L35.1659 12.6222C35.7085 11.9111 36.3598 11.3778 37.2281 11.0222C38.0964 10.6667 39.1817 10.4 40.5927 10.4H41.461C41.3525 10.4 41.3525 13.3333 41.3525 13.3333ZM46.8878 25.2444H43.089V10.4H46.8878V25.2444ZM46.6707 7.64444C46.2366 8 45.6939 8.17778 45.0427 8.17778C44.3915 8.17778 43.8488 8 43.4146 7.64444C42.9805 7.28889 42.7634 6.84444 42.7634 6.31111C42.7634 5.77778 42.9805 5.33333 43.4146 5.06667C43.8488 4.71111 44.3915 4.53333 45.0427 4.53333C45.6939 4.44444 46.2366 4.62222 46.6707 5.06667C47.1049 5.42222 47.322 5.86667 47.322 6.4C47.322 6.93333 47.1049 7.28889 46.6707 7.64444ZM67.1842 25.2444H65.122C63.9281 25.2444 63.0598 25.0667 62.5171 24.6222C61.9744 24.1778 61.7573 23.6444 61.7573 22.8444C60.3464 24.5333 58.3927 25.4222 55.7878 25.4222C53.7256 25.4222 52.0976 25.0667 50.9037 24.2667C49.7098 23.4667 49.0586 22.4 49.0586 21.0667C49.0586 19.5556 49.7098 18.4 51.0122 17.5111C52.3146 16.7111 54.2683 16.2667 56.7646 16.2667H61.3232V15.3778C61.3232 14.5778 60.9976 13.8667 60.2378 13.4222C59.4781 12.9778 58.5012 12.7111 57.3073 12.7111C56.222 12.7111 55.2451 12.8889 54.5939 13.3333C53.8342 13.6889 53.4 14.2222 53.2915 14.9333H49.4927C49.7098 13.4222 50.4695 12.2667 51.8805 11.4667C53.2915 10.6667 55.1366 10.2222 57.4159 10.2222C59.8037 10.2222 61.7573 10.6667 63.0598 11.6444C64.3622 12.5333 65.0134 13.9556 65.0134 15.6444V21.4222C65.0134 22.1333 65.4476 22.4889 66.2073 22.4889L67.1842 22.4C67.1842 22.4889 67.1842 25.2444 67.1842 25.2444ZM73.0451 25.2444H69.2464V4.97778H73.0451V25.2444Z" fill="#3F3B3D"/>
</svg>
