<svg width="50" height="50" viewBox="0 0 50 50" fill="none" xmlns="http://www.w3.org/2000/svg">
<path d="M10.1562 25.7812L19.5312 35.1562L38.2812 16.4062" stroke="#F4AB00" stroke-width="2" stroke-miterlimit="10" stroke-linejoin="bevel"/>
<path d="M25 0.781985V0.000732422V0.781985ZM49.218 25H48.4367H49.218ZM25 49.2179V48.4367V49.2179ZM1.5633 25C1.5633 21.9222 2.1695 18.8746 3.3473 16.0311L1.90375 15.4332C0.647417 18.4662 0.000793408 21.717 0.000793457 25H1.5633ZM3.3473 16.0311C4.52512 13.1876 6.25144 10.604 8.42776 8.4277L7.3229 7.32284C5.0015 9.64419 3.16008 12.4001 1.90375 15.4332L3.3473 16.0311ZM8.42776 8.4277C10.604 6.25139 13.1877 4.52506 16.0312 3.34724L15.4332 1.90369C12.4002 3.16002 9.64425 5.00145 7.3229 7.32284L8.42776 8.4277ZM16.0312 3.34724C18.8746 2.16944 21.9223 1.56324 25 1.56324V0.000732422C21.7171 0.000732423 18.4663 0.647356 15.4332 1.90369L16.0312 3.34724ZM25 1.56324C28.0778 1.56324 31.1254 2.16944 33.9689 3.34724L34.5668 1.90369C31.5338 0.647356 28.2829 0.000732422 25 0.000732422V1.56324ZM33.9689 3.34724C36.8123 4.52506 39.396 6.25139 41.5723 8.4277L42.6771 7.32284C40.3557 5.00145 37.5999 3.16002 34.5668 1.90369L33.9689 3.34724ZM41.5723 8.4277C43.7485 10.604 45.475 13.1876 46.6527 16.0311L48.0963 15.4332C46.84 12.4001 44.9985 9.64419 42.6771 7.32284L41.5723 8.4277ZM46.6527 16.0311C47.8305 18.8746 48.4367 21.9222 48.4367 25H49.9992C49.9992 21.717 49.3526 18.4662 48.0963 15.4332L46.6527 16.0311ZM48.4367 25C48.4367 28.0777 47.8305 31.1254 46.6527 33.9688L48.0963 34.5668C49.3526 31.5337 49.9992 28.2829 49.9992 25H48.4367ZM46.6527 33.9688C45.475 36.8122 43.7485 39.3959 41.5723 41.5722L42.6771 42.6771C44.9985 40.3557 46.84 37.5998 48.0963 34.5668L46.6527 33.9688ZM41.5723 41.5722C39.396 43.7485 36.8123 45.4749 33.9689 46.6526L34.5668 48.0962C37.5999 46.8399 40.3557 44.9985 42.6771 42.6771L41.5723 41.5722ZM33.9689 46.6526C31.1254 47.8304 28.0778 48.4367 25 48.4367V49.9992C28.2829 49.9992 31.5338 49.3526 34.5668 48.0962L33.9689 46.6526ZM25 48.4367C21.9223 48.4367 18.8746 47.8304 16.0312 46.6526L15.4332 48.0962C18.4663 49.3526 21.7171 49.9992 25 49.9992V48.4367ZM16.0312 46.6526C13.1877 45.4748 10.604 43.7485 8.42776 41.5722L7.3229 42.6771C9.64425 44.9985 12.4002 46.8399 15.4332 48.0962L16.0312 46.6526ZM8.42776 41.5722C6.25144 39.3959 4.52512 36.8122 3.3473 33.9688L1.90375 34.5668C3.16008 37.5998 5.0015 40.3557 7.3229 42.6771L8.42776 41.5722ZM3.3473 33.9688C2.1695 31.1254 1.5633 28.0777 1.5633 25H0.000793457C0.000793408 28.2829 0.647417 31.5337 1.90375 34.5668L3.3473 33.9688Z" fill="#F4AB00"/>
</svg>
