<svg width="64" height="65" viewBox="0 0 64 65" fill="none" xmlns="http://www.w3.org/2000/svg">
<rect y="0.40625" width="64" height="64" fill="#604B83"/>
<g clip-path="url(#clip0_1_145)">
<path d="M18.1114 45.0502C17.8514 44.2515 18.0836 43.6013 18.808 43.0998C21.0186 41.6509 23.7214 40.5735 26.9164 39.8675C25.3561 37.9171 24.2508 35.5486 23.6006 32.7622C23.4149 31.7406 23.3127 30.6074 23.2941 29.3628C23.2755 28.1182 23.4892 26.7343 23.935 25.2111C24.3808 23.6879 24.9938 22.4061 25.774 21.3659C27.3344 19.4154 29.4056 18.4402 31.9877 18.4402C34.5697 18.4402 36.6317 19.4154 38.1735 21.3659C38.9722 22.4247 39.5945 23.7065 40.0404 25.2111C40.4862 26.7158 40.6905 28.0997 40.6534 29.3628C40.6162 30.626 40.514 31.7591 40.3469 32.7622C39.6967 35.5486 38.5914 37.9171 37.031 39.8675C40.2261 40.5735 42.9289 41.6509 45.1395 43.0998C45.8639 43.6013 46.1054 44.2608 45.8639 45.0781C45.6224 45.8954 45.0559 46.3041 44.1642 46.3041H19.7833C19.3932 46.3041 19.0402 46.1834 18.7244 45.9419C18.4087 45.7004 18.2043 45.4032 18.1114 45.0502ZM19.7833 44.5766H44.1642C42.1394 43.2205 39.6595 42.2174 36.7245 41.5672L34.5233 41.1214C33.6874 41.6787 32.8422 41.9573 31.9877 41.9573C31.1332 41.9573 30.2787 41.6787 29.4242 41.1214L27.2508 41.5672C24.2786 42.2174 21.7895 43.2205 19.7833 44.5766ZM25.161 27.8025C24.9195 29.7158 25.0681 31.6477 25.6068 33.5982C26.1455 35.5486 27.0372 37.2762 28.2818 38.7809L28.5604 39.1709C29.6007 40.3784 30.7431 40.9821 31.9877 40.9821C33.2323 40.9821 34.3747 40.3784 35.4149 39.1709L35.6657 38.7809C36.9103 37.2576 37.8019 35.5301 38.3407 33.5982C38.8794 31.6663 39.028 29.7344 38.7865 27.8025C38.5264 25.7034 37.8205 23.9108 36.6688 22.4247C35.5171 20.9387 33.9567 20.1956 31.9877 20.1956C30.0186 20.1956 28.4582 20.9387 27.3065 22.4247C26.1548 23.9108 25.4396 25.7034 25.161 27.8025Z" fill="white"/>
</g>
<defs>
<clipPath id="clip0_1_145">
<rect width="28" height="28" fill="white" transform="translate(18 18.4062)"/>
</clipPath>
</defs>
</svg>
