<svg width="25" height="25" viewBox="0 0 25 25" fill="none" xmlns="http://www.w3.org/2000/svg">
<g clip-path="url(#clip0_1_248)">
<path d="M0 10.9022C0 9.80753 0.298542 8.88703 0.895628 8.14066C1.49271 7.39432 2.23077 7.02113 3.10982 7.02113H10.2997C11.3446 7.02113 12.3315 6.64795 13.2602 5.90161C14.189 5.15524 14.9852 4.11863 15.6486 2.79179H15.6983C16.6603 0.950778 17.9043 0.0302734 19.4301 0.0302734C21.1219 0.0302734 22.4487 1.11664 23.4107 3.28935C24.3727 5.46208 24.8619 7.9997 24.8785 10.9022C24.8951 13.8047 24.4058 16.3506 23.4107 18.5399C22.4155 20.7292 21.0887 21.8156 19.4301 21.799C17.9043 21.799 16.6603 20.8785 15.6983 19.0375H15.6486C14.3549 16.4667 12.7046 15.0735 10.6978 14.8579C10.5982 14.891 10.5319 14.9076 10.4988 14.9076V14.9574C10.3992 14.9906 10.3163 15.0486 10.2499 15.1315C10.2168 15.1647 10.2002 15.1979 10.2002 15.231C10.1338 15.3306 10.1007 15.4301 10.1007 15.5296V21.0277C10.1007 21.1604 10.2334 21.376 10.4988 21.6746C10.7641 21.9731 10.8968 22.2717 10.8968 22.5702V23.3663C10.8968 23.781 10.7392 24.1376 10.4241 24.4361C10.109 24.7346 9.74408 24.8922 9.32944 24.9088H6.21964C5.805 24.9088 5.44009 24.7512 5.12497 24.4361C4.80985 24.121 4.66057 23.7644 4.67717 23.3663V16.3506C4.67717 15.936 4.51961 15.571 4.20446 15.2559C3.88935 14.9408 3.52446 14.7915 3.10982 14.8081C2.23077 14.8081 1.49271 14.4349 0.895628 13.6886C0.298542 12.9422 0 12.0134 0 10.9022ZM1.56735 10.9022C1.56735 11.5656 1.71662 12.1212 2.01516 12.569C2.3137 13.0169 2.67859 13.2408 3.10982 13.2408H8.55822C8.04405 12.6271 7.78696 11.8476 7.78696 10.9022C7.78696 9.95682 8.04405 9.18557 8.55822 8.58848H3.10982C2.69517 8.58848 2.33029 8.81238 2.01516 9.26021C1.70003 9.70801 1.55076 10.2554 1.56735 10.9022ZM5.77182 14.8081C6.07036 15.2891 6.21964 15.8032 6.21964 16.3506V23.3663H9.32944V22.6697L9.22994 22.5702C8.78211 22.0229 8.55822 21.5087 8.55822 21.0277V15.5793C8.55822 15.314 8.60798 15.0569 8.70747 14.8081H5.77182ZM8.55822 10.9022C8.55822 11.5656 8.70747 12.1212 9.00601 12.569C9.30455 13.0169 9.66947 13.2408 10.1007 13.2408H10.2997C11.7261 13.2408 13.0695 13.7632 14.33 14.8081C14.1144 13.5808 14.0066 12.2788 14.0066 10.9022C14.0066 9.57533 14.1144 8.28164 14.33 7.02113C13.0695 8.06604 11.7261 8.58848 10.2997 8.58848H10.1007C9.68604 8.58848 9.32116 8.81238 9.00601 9.26021C8.69089 9.70801 8.54164 10.2554 8.55822 10.9022ZM15.5491 10.9022C15.5491 11.6817 15.5988 12.4613 15.6983 13.2408H17.8877C18.3023 13.2408 18.6672 13.0169 18.9823 12.569C19.2974 12.1212 19.4467 11.5656 19.4301 10.9022C19.4135 10.2388 19.2643 9.69143 18.9823 9.26021C18.7004 8.82899 18.3355 8.60506 17.8877 8.58848H15.6983C15.5988 9.36801 15.5491 10.1393 15.5491 10.9022ZM15.8974 14.8081C16.2125 16.4169 16.6852 17.7272 17.3154 18.7389C17.9457 19.7507 18.6506 20.2482 19.4301 20.2316C20.5082 20.2316 21.4287 19.3277 22.1916 17.5199C22.9546 15.712 23.3278 13.5061 23.3112 10.9022C23.2946 8.29825 22.9214 6.10063 22.1916 4.30938C21.4619 2.51813 20.5414 1.61421 19.4301 1.59762C18.6506 1.59762 17.9457 2.09519 17.3154 3.09033C16.6852 4.08548 16.2125 5.39575 15.8974 7.02113H17.8877C18.7501 7.02113 19.4882 7.39432 20.1018 8.14066C20.7155 8.88703 21.014 9.80753 20.9975 10.9022C20.9809 11.9968 20.6824 12.9256 20.1018 13.6886C19.5213 14.4515 18.7833 14.8247 17.8877 14.8081H15.8974Z" fill="black"/>
</g>
<defs>
<clipPath id="clip0_1_248">
<rect width="25" height="25" fill="white"/>
</clipPath>
</defs>
</svg>
