<svg width="64" height="65" viewBox="0 0 64 65" fill="none" xmlns="http://www.w3.org/2000/svg">
<rect y="0.40625" width="64" height="64" fill="#604B83"/>
<g clip-path="url(#clip0_1_136)">
<path d="M35.5543 36.8031L32.9154 39.3982V31.9515C32.9154 31.2745 32.4565 30.8232 31.7681 30.8232C31.0797 30.8232 30.6207 31.2745 30.6207 31.9515V39.3982L27.9819 36.8031C27.5229 36.3518 26.8345 36.3518 26.3756 36.8031C25.9167 37.2545 25.9167 37.9314 26.3756 38.3827L30.965 42.8959C31.0797 43.0088 31.1944 43.1216 31.3092 43.1216C31.4239 43.2344 31.6534 43.2344 31.7681 43.2344C31.8829 43.2344 32.1123 43.2344 32.2271 43.1216C32.3418 43.0087 32.4565 43.0087 32.5712 42.8959L37.1606 38.3827C37.6196 37.9314 37.6196 37.2545 37.1606 36.8031C36.7017 36.3519 36.0133 36.3518 35.5544 36.8031H35.5543ZM44.2741 30.259C43.012 28.5666 40.9468 27.4383 38.6521 27.4383H38.0784C36.3574 22.4738 30.965 19.6531 25.8019 21.007C23.0483 21.684 20.8684 23.2636 19.3768 25.633C18 28.0024 17.5411 30.7103 18.2295 33.3054C18.6884 34.885 19.3768 36.3518 20.5242 37.4801C20.9831 37.9314 21.6715 38.0442 22.1304 37.5929C22.5893 37.1416 22.7041 36.4646 22.2452 36.0133C21.442 35.1107 20.7536 33.9824 20.5242 32.7413C19.9505 30.7104 20.2947 28.5666 21.442 26.7613C22.5893 24.9561 24.3104 23.6021 26.3756 23.1508C30.6208 22.0225 35.0954 24.6176 36.128 28.7923C36.2427 29.2436 36.7016 29.6949 37.2753 29.6949H38.6521C40.1437 29.6949 41.5205 30.3719 42.4384 31.613C43.1268 32.6284 43.471 33.7567 43.2415 34.9979C43.012 36.239 42.3236 37.2545 41.4058 37.9314C40.8321 38.2699 40.7174 38.9469 41.1763 39.511C41.4058 39.8495 41.75 39.9623 42.0942 39.9623C42.3236 39.9623 42.5531 39.8495 42.7826 39.7367C44.2741 38.7212 45.3067 37.1416 45.6509 35.3364C45.9951 33.5311 45.3067 31.8386 44.2741 30.259H44.2741Z" fill="white"/>
</g>
<defs>
<clipPath id="clip0_1_136">
<rect width="28" height="23" fill="white" transform="translate(18 20.4062)"/>
</clipPath>
</defs>
</svg>
