<svg width="25" height="25" viewBox="0 0 25 25" fill="none" xmlns="http://www.w3.org/2000/svg">
<path d="M18.5357 15.345C18.5357 16.4286 18.844 16.8607 19.6502 16.8607C21.4472 16.8607 22.5914 14.571 22.5914 10.7629C22.5914 4.94245 18.3499 2.15605 13.0545 2.15605C7.60682 2.15605 2.65194 5.80933 2.65194 12.7134C2.65194 19.3078 6.98632 22.8992 13.6427 22.8992C15.9028 22.8992 17.4198 22.6516 19.7405 21.8775L20.2385 23.9506C17.9474 24.6949 15.499 24.9103 13.6118 24.9103C4.88105 24.9103 0.204803 20.1115 0.204803 12.7121C0.204803 5.25075 5.62407 0.17334 13.0854 0.17334C20.8564 0.17334 24.9727 4.81732 24.9727 10.514C24.9727 15.3437 23.457 19.0279 18.6892 19.0279C16.5207 19.0279 15.0978 18.1611 14.9121 16.2403C14.3548 18.3765 12.8687 19.0279 10.855 19.0279C8.16148 19.0279 5.90142 16.9523 5.90142 12.774C5.90142 8.56346 7.88413 5.96285 11.4445 5.96285C13.3331 5.96285 14.5096 6.70587 15.0333 7.88235L15.9324 6.24149H18.5331V15.345H18.5356L18.5357 15.345ZM14.7289 11.2583C14.7289 9.55677 13.4582 8.8434 12.4056 8.8434C11.2601 8.8434 9.99203 9.77093 9.99203 12.4967C9.99203 14.6639 10.9518 15.8713 12.4056 15.8713C13.4273 15.8713 14.7289 15.2211 14.7289 13.4255V11.2583Z" fill="black"/>
</svg>
