<svg width="25" height="25" viewBox="0 0 25 25" fill="none" xmlns="http://www.w3.org/2000/svg">
<g clip-path="url(#clip0_1_236)">
<path d="M3.38705e-06 18.6892V3.14009C3.38705e-06 2.49325 0.22391 1.94592 0.671723 1.49811C1.11954 1.0503 1.67516 0.818099 2.33858 0.801514H22.54C23.1868 0.801514 23.7424 1.03371 24.2068 1.49811C24.6712 1.96251 24.8951 2.50984 24.8785 3.14009V18.6892C24.8785 19.336 24.6546 19.8833 24.2068 20.3312C23.759 20.779 23.2034 21.0112 22.54 21.0278H14.7778V21.9483L19.6292 22.5702C20.0106 22.6697 20.2014 22.9351 20.2014 23.3663C20.2014 23.582 20.135 23.7644 20.0023 23.9137C19.8697 24.0629 19.6789 24.1376 19.4301 24.1376H5.44841C5.21621 24.1376 5.02546 24.0629 4.87621 23.9137C4.72692 23.7644 4.66058 23.582 4.67716 23.3663C4.67716 22.9351 4.8679 22.6697 5.24936 22.5702L10.1007 21.9483V21.0278H2.33858C1.69174 21.0278 1.13612 20.7956 0.671723 20.3312C0.207325 19.8668 -0.0165823 19.3194 3.38705e-06 18.6892ZM1.56735 18.6892C1.56735 18.9214 1.63369 19.1038 1.76638 19.2365C1.89907 19.3692 2.0898 19.4438 2.33858 19.4604H22.54C22.7721 19.4604 22.9629 19.3858 23.1122 19.2365C23.2614 19.0872 23.3278 18.9048 23.3112 18.6892V3.14009C23.3112 2.90789 23.2448 2.72545 23.1122 2.59277C22.9795 2.46008 22.7887 2.38544 22.54 2.36886H2.33858C2.10638 2.36886 1.91565 2.4435 1.76638 2.59277C1.61711 2.74204 1.55076 2.92448 1.56735 3.14009V18.6892ZM3.10981 15.5793V4.70744C3.10981 4.47523 3.18445 4.28452 3.33374 4.13523C3.48299 3.98598 3.66543 3.91133 3.88106 3.91133H20.9975C21.2131 3.91133 21.3955 3.98598 21.5448 4.13523C21.6941 4.28452 21.7687 4.47523 21.7687 4.70744V15.5793C21.7687 15.8115 21.6941 15.994 21.5448 16.1267C21.3955 16.2594 21.2131 16.334 20.9975 16.3506H3.88106C3.66543 16.3506 3.48299 16.2759 3.33374 16.1267C3.18445 15.9774 3.10981 15.795 3.10981 15.5793ZM3.88106 15.5793H20.9975V4.70744H3.88106V15.5793Z" fill="black"/>
</g>
<defs>
<clipPath id="clip0_1_236">
<rect width="25" height="25" fill="white"/>
</clipPath>
</defs>
</svg>
