<svg width="50" height="50" viewBox="0 0 50 50" fill="none" xmlns="http://www.w3.org/2000/svg">
<path d="M25.0007 0.693115C38.4257 0.693115 49.3078 11.5751 49.307 25.0001C49.3078 38.4259 38.4249 49.3087 24.9999 49.3072C11.5742 49.308 0.692945 38.4259 0.693726 25.0009C0.691382 11.5751 11.5742 0.693115 25.0007 0.693115Z" stroke="#F4AB00" stroke-width="2" stroke-miterlimit="10"/>
<path d="M25 0.78125V49.2188" stroke="#F4AB00" stroke-width="2" stroke-miterlimit="10"/>
<path d="M49.2188 25H0.78125" stroke="#F4AB00" stroke-width="2" stroke-miterlimit="10"/>
<path d="M23.4375 0.78125C23.4375 0.78125 12.5 9.375 12.5 25C12.5 40.625 23.4375 49.2188 23.4375 49.2188" stroke="#F4AB00" stroke-width="2" stroke-miterlimit="10"/>
<path d="M26.5625 0.78125C26.5625 0.78125 37.5 9.375 37.5 25C37.5 40.625 26.5625 49.2188 26.5625 49.2188" stroke="#F4AB00" stroke-width="2" stroke-miterlimit="10"/>
<path d="M6.25 9.375C6.25 9.375 10.1562 17.1875 25 17.1875C39.8438 17.1875 43.75 9.375 43.75 9.375" stroke="#F4AB00" stroke-width="2" stroke-miterlimit="10"/>
<path d="M6.25 40.625C6.25 40.625 10.1562 32.8125 25 32.8125C39.8438 32.8125 43.75 40.625 43.75 40.625" stroke="#F4AB00" stroke-width="2" stroke-miterlimit="10"/>
</svg>
