<svg width="25" height="25" viewBox="0 0 25 25" fill="none" xmlns="http://www.w3.org/2000/svg">
<path d="M17.5091 0.24807H7.6649C6.31023 0.24807 5.21124 1.34706 5.21124 2.70173V22.379C5.21124 23.7349 6.31023 24.8339 7.6649 24.8339H17.5078C18.8638 24.8339 19.9627 23.7349 19.9627 22.3802V2.70171C19.9627 1.34704 18.8637 0.248047 17.509 0.248047L17.5091 0.24807ZM12.587 23.6046C11.7388 23.6046 11.0504 23.0551 11.0504 22.3753C11.0504 21.6955 11.7388 21.146 12.587 21.146C13.4352 21.146 14.1236 21.6955 14.1236 22.3753C14.1236 23.0551 13.4352 23.6046 12.587 23.6046ZM17.5042 19.9167H7.66983V2.70665H17.5042V19.9167Z" fill="black"/>
</svg>
