<svg width="128" height="32" viewBox="0 0 128 32" fill="none" xmlns="http://www.w3.org/2000/svg">
<g clip-path="url(#clip0_1_181)">
<path d="M44.8831 10.7556C45.2987 10.7556 45.6312 10.7556 45.7143 10.8445C45.7974 10.9334 45.7974 11.0223 45.7974 11.3779C45.7974 11.5556 45.8805 11.8223 45.9636 11.8223C46.0467 11.8223 46.2961 11.7334 46.7117 11.3779C47.0441 11.2001 47.2935 10.9334 47.7922 10.8445C48.2078 10.7556 48.6234 10.6667 49.0389 10.6667C49.8701 10.6667 50.6182 11.0223 51.2831 11.6445C51.7818 12.089 52.1974 12.7112 52.5299 13.5112C52.8623 14.3112 52.9454 15.0223 52.9454 15.9112C52.9454 17.7779 52.3636 19.1112 51.2 20.3556C50.2857 21.2445 49.3714 21.7779 48.2909 21.7779C47.7091 21.7779 47.2104 21.689 46.5454 21.3334C46.4623 21.2445 46.3792 21.2445 46.213 21.2445C46.0467 21.2445 45.8805 21.4223 45.8805 21.8667C45.8805 22.4001 46.0467 22.8445 46.3792 23.0223C46.7117 23.2001 46.8779 23.4667 46.961 23.4667C47.0441 23.5556 47.0441 23.6445 47.0441 23.9112C47.0441 24.3556 46.8779 24.7112 46.2961 24.889C45.8805 25.0667 45.2156 25.2445 44.3844 25.2445C42.9714 25.2445 41.6415 24.889 40.561 24.2667C40.0623 23.9112 39.7299 23.6445 39.7299 23.1112C39.7299 22.9334 39.7299 22.7556 39.813 22.6667C39.8961 22.5779 39.9792 22.489 40.3117 22.3112C40.6441 22.1334 40.8935 21.8667 40.8935 21.3334C40.9766 20.889 40.9766 19.6445 41.0597 17.4223C41.0597 15.7334 40.9766 14.7556 40.8935 14.489C40.8935 14.4001 40.8104 14.4001 40.8104 14.4001C40.8104 14.4001 40.7273 14.2223 40.3948 14.2223C40.2286 14.2223 39.9792 14.1334 39.8961 13.8667C39.813 13.689 39.7299 13.5112 39.7299 13.2445C39.7299 12.9779 39.813 12.7112 40.0623 12.4445C40.2286 12.2667 40.561 12.0001 40.9766 11.8223C42.6389 11.2001 43.9688 10.7556 44.8831 10.7556ZM45.8805 14.7556L45.7974 17.689C45.7974 17.7779 45.7974 17.8667 45.7974 18.0445C45.7974 18.2223 45.8805 18.489 46.1299 18.5779C46.2961 18.6667 46.5454 18.7556 46.8779 18.7556C47.7922 18.7556 48.2909 17.9556 48.2909 16.3556C48.2909 15.289 48.1247 14.6667 47.7091 14.2223C47.5428 14.0445 47.2104 13.7779 46.8779 13.7779C46.213 13.7779 45.8805 14.1334 45.8805 14.7556Z" fill="#3F3B3D"/>
<path d="M62.8363 16.5336H58.1818C58.0155 16.5336 57.8493 16.6224 57.8493 16.8891C57.8493 17.3336 58.0155 17.778 58.5974 18.2224C59.1792 18.6669 59.5948 18.8447 60.0935 18.8447C60.4259 18.8447 60.8415 18.7558 61.174 18.6669C61.5896 18.578 61.922 18.3113 62.1714 18.2224C62.3376 18.0447 62.587 18.0447 62.6701 18.0447C62.8363 18.0447 63.0025 18.1336 63.1688 18.4002C63.335 18.578 63.335 18.8447 63.335 19.2002C63.335 19.7336 63.0025 20.178 62.4207 20.7113C61.4233 21.6002 60.0935 22.0447 58.7636 22.0447C57.3506 22.0447 56.2701 21.6002 55.1896 20.7113C54.6909 20.2669 54.3584 19.7336 54.109 19.2002C53.6935 18.4002 53.5272 17.6002 53.5272 16.6224C53.5272 15.4669 53.8597 14.3113 54.5246 13.4224C55.1064 12.5336 55.8545 12.0002 56.7688 11.5558C57.5168 11.2002 58.1818 11.1113 59.0129 11.1113C60.3428 11.1113 61.3402 11.5558 62.2545 12.2669C62.6701 12.7113 63.0857 13.1558 63.335 13.6891C63.6675 14.3113 63.8337 14.8447 63.8337 15.378C63.8337 15.8224 63.7506 16.2669 63.5012 16.5336C63.335 16.3558 63.1688 16.5336 62.8363 16.5336ZM58.4311 14.578H59.4285C59.8441 14.578 60.0103 14.4002 60.0103 13.9558C60.0103 13.5113 59.9272 13.3336 59.6779 12.978C59.5116 12.8002 59.1792 12.6224 58.8467 12.6224C58.4311 12.6224 58.0986 12.7113 57.9324 13.0669C57.7662 13.4224 57.6 13.6002 57.6 13.9558C57.6 14.1336 57.5999 14.3113 57.6831 14.4002C58.0155 14.578 58.1818 14.578 58.4311 14.578Z" fill="#3F3B3D"/>
<path d="M70.2337 13.5113V17.0669C70.2337 17.5113 70.3168 17.8669 70.5662 18.1335C70.7324 18.4891 70.9818 18.578 71.3143 18.578C71.6467 18.578 71.8961 18.4891 72.3117 18.1335C72.4779 18.1335 72.6441 18.1335 72.7272 18.1335C72.8935 18.1335 73.0597 18.2224 73.1428 18.4891C73.2259 18.6669 73.3091 18.9335 73.3091 19.1113C73.3091 19.5558 73.1428 20.0002 72.561 20.4446C71.6467 21.3335 70.4 21.778 69.1532 21.778C68.0727 21.778 67.2415 21.4224 66.6597 20.8002C66.0779 20.178 65.6623 19.2891 65.6623 18.2224V13.2446C65.6623 13.0669 65.6623 13.0669 65.5792 12.8891C65.5792 12.8891 65.4961 12.8002 65.2467 12.8002H64.2493C64.0831 12.8002 63.9168 12.8002 63.8337 12.7113C63.7506 12.6224 63.7506 12.5335 63.7506 12.2669V11.8224C63.7506 11.6446 63.8337 11.4669 63.9168 11.378L68.6545 8.26687C68.7376 8.17798 68.987 8.17798 69.0701 8.17798H69.9013C70.0675 8.17798 70.2337 8.17798 70.2337 8.26687C70.3168 8.35576 70.3168 8.44465 70.3168 8.71131V10.1335C70.3168 10.3113 70.3168 10.4891 70.4 10.578C70.4831 10.6669 70.5662 10.6669 70.8155 10.6669H72.6441C72.8104 10.6669 73.0597 10.6669 73.1428 10.7558C73.2259 10.8446 73.2259 11.1113 73.2259 11.378V12.0002C73.2259 12.3558 73.2259 12.5335 73.1428 12.8002C73.0597 12.8891 72.8104 12.978 72.6441 12.978H70.8155C70.6493 12.978 70.4831 12.978 70.4 13.0669C70.2337 13.1558 70.2337 13.2446 70.2337 13.5113Z" fill="#3F3B3D"/>
<path d="M77.7973 10.6668C78.1298 10.6668 78.7116 10.7557 79.3766 10.8445C79.5428 10.8445 79.709 10.8445 79.7922 10.8445C79.8753 10.8445 80.1246 10.7557 80.5402 10.6668C80.7064 10.5779 80.8727 10.5779 80.9558 10.5779C81.2883 10.5779 81.5376 10.7557 81.8701 11.2001C82.2025 11.5557 82.3688 11.8223 82.4519 12.2668C82.6181 12.7112 82.6181 13.0668 82.6181 13.3334C82.6181 13.689 82.535 13.8668 82.2857 14.1334C82.1194 14.3112 81.8701 14.489 81.5376 14.489C81.3714 14.489 81.122 14.4001 80.9558 14.3112C80.7896 14.2223 80.4571 13.8668 80.0415 13.5112C79.6259 13.0668 79.2103 12.889 79.0441 12.889C78.8779 12.889 78.7116 12.9779 78.5454 13.0668C78.4623 13.1557 78.3792 13.4223 78.3792 13.6001C78.3792 13.9557 78.7116 14.2223 79.2935 14.5779C80.374 15.1112 81.2883 15.6445 81.9532 16.2668C82.4519 16.8001 82.7844 17.4223 82.7844 18.2223C82.7844 19.2001 82.3688 20.089 81.5376 20.7112C80.7896 21.2445 80.0415 21.6001 79.0441 21.6001C78.7116 21.6001 78.2961 21.6001 77.6311 21.5112C76.9662 21.3334 76.5506 21.3334 76.4675 21.3334C76.3844 21.3334 76.3012 21.3334 76.135 21.3334C75.9688 21.3334 75.8025 21.3334 75.7194 21.3334C75.387 21.3334 75.1376 21.2445 74.9714 21.1557C74.6389 20.9779 74.4727 20.5334 74.1402 19.8223C73.974 19.289 73.8077 18.7557 73.8077 18.4001C73.8077 17.7779 73.974 17.4223 74.5558 17.4223C74.722 17.4223 74.9714 17.5112 75.0545 17.6001C75.2207 17.689 75.5532 18.0445 76.0519 18.6668C76.3844 19.0223 76.5506 19.2001 76.7999 19.289C76.9662 19.3779 77.2155 19.4668 77.3818 19.4668C77.548 19.4668 77.7973 19.3779 77.8805 19.289C77.9636 19.2001 78.0467 18.9334 78.0467 18.7557C78.0467 18.4001 77.7142 18.1334 77.2155 17.8668C76.135 17.3334 75.387 16.7112 74.8883 16.1779C74.3896 15.5557 74.1402 14.8445 74.1402 14.1334C74.1402 13.2445 74.3064 12.5334 74.8883 12.0001C75.5532 11.1112 76.5506 10.6668 77.7973 10.6668Z" fill="#3F3B3D"/>
<path d="M88.3532 10.7556C88.7688 10.7556 89.1013 10.7556 89.1844 10.8445C89.2675 10.9334 89.2675 11.0223 89.2675 11.3779C89.2675 11.5556 89.3506 11.8223 89.4337 11.8223C89.5168 11.8223 89.7662 11.7334 90.1818 11.3779C90.5142 11.2001 90.7636 10.9334 91.2623 10.8445C91.6779 10.7556 92.0935 10.6667 92.509 10.6667C93.3402 10.6667 94.0883 11.0223 94.7532 11.6445C95.2519 12.089 95.6675 12.7112 96 13.5112C96.3324 14.3112 96.4155 15.0223 96.4155 15.9112C96.4155 17.7779 95.8337 19.1112 94.6701 20.3556C93.7558 21.2445 92.8415 21.7779 91.761 21.7779C91.1792 21.7779 90.6805 21.689 90.0155 21.3334C89.9324 21.2445 89.8493 21.2445 89.6831 21.2445C89.5168 21.2445 89.3506 21.4223 89.3506 21.8667C89.3506 22.4001 89.5168 22.8445 89.8493 23.0223C90.1818 23.2001 90.348 23.4667 90.4311 23.4667C90.5142 23.5556 90.5142 23.6445 90.5142 23.9112C90.5142 24.3556 90.348 24.7112 89.7662 24.889C89.3506 25.0667 88.6857 25.2445 87.8545 25.2445C86.4415 25.2445 85.1116 24.889 84.0311 24.2667C83.5324 23.9112 83.2 23.6445 83.2 23.1112C83.2 22.9334 83.1999 22.7556 83.2831 22.6667C83.3662 22.5779 83.4493 22.489 83.7818 22.3112C84.1142 22.1334 84.3636 21.8667 84.3636 21.3334C84.4467 20.889 84.4467 19.6445 84.5298 17.4223C84.5298 15.7334 84.4467 14.7556 84.3636 14.489C84.3636 14.4001 84.2805 14.4001 84.2805 14.4001C84.2805 14.4001 84.1974 14.2223 83.948 14.2223C83.7818 14.2223 83.5324 14.1334 83.4493 13.8667C83.3662 13.689 83.2831 13.5112 83.2831 13.2445C83.2831 12.9779 83.3662 12.7112 83.6155 12.4445C83.7818 12.2667 84.1142 12.0001 84.5298 11.8223C86.1922 11.2001 87.3558 10.7556 88.3532 10.7556ZM89.3506 14.7556L89.2675 17.689C89.2675 17.7779 89.2675 17.8667 89.2675 18.0445C89.2675 18.2223 89.3506 18.489 89.6 18.5779C89.7662 18.6667 90.0155 18.7556 90.348 18.7556C91.2623 18.7556 91.761 17.9556 91.761 16.3556C91.761 15.289 91.5948 14.6667 91.1792 14.2223C91.0129 14.0445 90.6805 13.7779 90.348 13.7779C89.6831 13.7779 89.3506 14.1334 89.3506 14.7556Z" fill="#3F3B3D"/>
<path d="M102.732 12.8001V16.2668C102.732 17.7779 102.732 18.6668 102.816 18.8445C102.816 19.0223 102.982 19.289 103.314 19.3779C103.481 19.4668 103.73 19.5557 103.813 19.7334C103.896 19.8223 103.896 19.9112 103.896 20.1779C103.896 20.3557 103.813 20.6223 103.73 20.8001C103.564 20.9779 103.314 21.1557 103.148 21.2445C102.649 21.3334 101.818 21.4223 100.738 21.4223C99.4078 21.4223 98.4935 21.3334 97.9948 21.0668C97.8286 20.9779 97.5792 20.889 97.413 20.6223C97.2468 20.4445 97.2468 20.1779 97.2468 20.0001C97.2468 19.8223 97.2468 19.6445 97.3299 19.5557C97.413 19.4668 97.6624 19.3779 97.8286 19.2001C98.1611 19.1112 98.2442 18.7557 98.3273 18.2223C98.4104 17.2445 98.4935 15.9112 98.4935 14.2223C98.4935 12.5334 98.4935 11.3779 98.4104 10.8445C98.3273 10.3112 98.0779 9.95566 97.6624 9.77788C97.3299 9.6001 97.1637 9.42233 97.0805 9.33344C96.9974 9.24455 96.9143 9.15566 96.9143 8.88899C96.9143 8.53344 97.0805 8.26677 97.413 8.0001C97.7455 7.82233 98.2442 7.46677 98.9091 7.2001C99.4078 7.11121 99.9065 6.84455 100.738 6.75566C101.486 6.66677 102.068 6.57788 102.317 6.57788C102.816 6.57788 103.148 6.93344 103.148 7.64455C103.148 7.82233 103.148 8.44455 103.065 9.24455C102.816 10.6668 102.816 11.8223 102.732 12.8001Z" fill="#3F3B3D"/>
<path d="M110.213 10.6667C111.293 10.6667 112.374 11.0223 113.122 11.6445C113.538 12.0001 113.87 12.4445 114.036 12.8001C114.203 13.2445 114.369 13.7779 114.369 14.489V16.089C114.369 17.1556 114.452 17.9556 114.535 18.2223C114.618 18.3112 114.618 18.4001 114.701 18.5779C114.784 18.5779 114.868 18.6667 115.117 18.6667C115.366 18.6667 115.449 18.8445 115.449 19.1112C115.449 19.4667 115.366 19.7334 115.034 20.1779C114.701 20.5334 114.452 20.8001 114.036 21.1556C113.538 21.5112 113.039 21.6001 112.457 21.6001C111.709 21.6001 111.21 21.4223 110.878 20.8001C110.795 20.6223 110.545 20.4445 110.462 20.4445C110.379 20.4445 110.13 20.5334 109.964 20.6223C109.216 21.1556 108.551 21.4223 107.719 21.4223C106.805 21.4223 106.14 21.2445 105.558 20.8001C105.226 20.6223 104.977 20.1779 104.727 19.7334C104.561 19.289 104.395 18.8445 104.395 18.4001C104.395 17.6001 104.727 16.9779 105.226 16.4445C106.14 15.5556 107.47 15.1112 109.132 15.0223C109.548 15.0223 109.714 15.0223 109.88 14.9334C109.964 14.8445 109.964 14.5779 109.964 14.4001C109.964 13.6001 109.88 13.0667 109.797 12.8001C109.714 12.5334 109.382 12.2667 109.049 12.2667C108.883 12.2667 108.634 12.3556 108.551 12.4445C108.384 12.5334 108.218 12.8001 107.969 13.2445C107.387 14.1334 106.722 14.6667 106.14 14.6667C105.808 14.6667 105.558 14.5779 105.309 14.3112C105.06 14.0445 104.977 13.8667 104.977 13.4223C104.977 13.0667 105.06 12.8001 105.392 12.4445C105.725 12.089 105.974 11.8223 106.39 11.5556C107.636 11.0223 108.883 10.6667 110.213 10.6667ZM109.548 16.8001C109.216 16.8001 109.049 16.889 108.717 17.2445C108.551 17.4223 108.384 17.7779 108.384 18.1334C108.384 18.489 108.468 18.7556 108.551 19.0223C108.717 19.2001 108.966 19.3779 109.132 19.3779C109.631 19.3779 109.964 18.9334 109.964 17.9556C109.964 17.5112 109.964 17.3334 109.88 17.1556C109.88 16.889 109.797 16.8001 109.548 16.8001Z" fill="#3F3B3D"/>
<path d="M125.008 16.0001L123.678 19.9112C123.345 20.889 123.096 21.6001 122.68 22.3112C122.348 22.9334 121.932 23.3779 121.6 23.8223C120.686 24.7112 119.688 25.1557 118.442 25.1557C117.444 25.1557 116.613 24.8001 116.031 24.2668C115.532 23.8223 115.283 23.289 115.283 22.6668C115.283 22.1334 115.449 21.689 115.782 21.2445C116.114 20.889 116.53 20.7112 117.029 20.7112C117.527 20.7112 117.943 20.889 118.109 21.2445C118.192 21.3334 118.275 21.6001 118.442 21.689C118.442 21.7779 118.525 22.1334 118.608 22.489C118.691 22.8445 118.774 22.9334 119.106 22.9334C119.273 22.9334 119.522 22.8445 119.605 22.5779C119.688 22.4001 119.771 22.1334 119.771 21.7779C119.771 21.4223 119.605 20.889 119.273 20.089L116.862 14.5779C116.53 14.0445 116.447 13.6001 116.28 13.5112C116.197 13.4223 115.865 13.1557 115.449 12.9779C115.366 12.889 115.283 12.8001 115.117 12.6223C114.951 12.4445 115.034 12.2668 115.034 12.1779C115.034 11.5557 115.616 11.1112 116.779 10.8445C117.61 10.7557 118.525 10.6668 119.522 10.6668C120.27 10.6668 120.769 10.7557 121.101 10.8445C121.6 11.0223 121.932 11.3779 121.932 11.9112C121.932 12.089 121.849 12.3557 121.766 12.5334C121.683 12.7112 121.6 12.9779 121.6 13.1557C121.6 13.3334 121.6 13.5112 121.683 13.689C121.766 13.8668 121.849 14.2223 122.099 14.6668C122.431 15.2001 122.597 15.4668 122.847 15.4668C123.013 15.4668 123.262 15.289 123.429 14.8445C123.595 14.4001 123.761 13.9557 123.761 13.5112C123.761 13.1557 123.678 12.9779 123.595 12.7112C123.262 12.3557 123.179 12.1779 123.179 11.8223C123.179 11.4668 123.345 11.2001 123.927 10.9334C124.343 10.7557 124.925 10.5779 125.756 10.5779C127.169 10.5779 127.917 10.9334 127.917 11.6445C127.917 11.8223 127.834 12.089 127.751 12.2668C127.667 12.3557 127.335 12.6223 126.919 12.7112C126.587 12.8001 126.338 13.0668 126.088 13.3334C125.756 14.0445 125.423 14.8445 125.008 16.0001Z" fill="#3F3B3D"/>
<path d="M5.56884 27.7335C4.73768 27.9113 4.48833 28.1779 3.98962 28.6224C3.98962 29.4224 4.07274 30.0446 4.07274 30.9335C4.07274 31.3779 4.48833 32.089 5.48573 31.4668C6.15066 30.9335 5.8182 28.4446 6.73248 27.3779C6.3169 27.3779 5.98443 27.6446 5.56884 27.7335Z" fill="#3F3B3D"/>
<path d="M33.2467 17.3333C32.1662 17.4222 28.5922 17.5111 26.5143 16C26.5143 16.0889 26.5974 16.1778 26.6805 16.3556C27.9273 18.2222 29.6727 19.2 31.2519 19.5556C32 19.4667 32.5818 19.3778 33.2467 19.0222C34.4935 18.6667 33.9948 17.2444 33.2467 17.3333Z" fill="#3F3B3D"/>
<path d="M14.6286 3.20015C16.2078 2.40015 18.3688 3.82238 20.2805 6.40015C20.613 6.31126 20.8624 6.0446 21.1948 5.95571C19.1169 3.20015 16.7065 1.77793 14.9611 2.57793C14.213 2.93349 13.7143 3.46682 13.3818 4.26682C13.7974 3.73349 14.213 3.46682 14.6286 3.20015Z" fill="#3F3B3D"/>
<path d="M24.5195 22.0447C24.187 23.4669 23.5221 24.5336 22.6078 24.978C22.1091 25.1558 21.6104 25.1558 21.1117 25.0669C21.9429 25.4225 22.6078 25.4225 23.3559 25.0669C24.2701 24.6225 24.9351 23.6447 25.3507 22.4002C25.0182 22.2225 24.6857 22.1336 24.5195 22.0447Z" fill="#3F3B3D"/>
<path d="M21.1948 4.53339C18.9507 1.95562 16.4572 0.622283 14.2961 1.51117C10.9715 2.93339 10.2234 9.68895 12.7169 16.5334C15.2104 23.3778 19.9481 27.7334 23.3559 26.4001C24.6857 25.8667 25.6 24.5334 26.0156 22.7556C26.1818 22.1334 26.5143 26.6667 23.0234 28.089C19.4494 29.6001 14.3792 24.7112 11.5533 17.1556C8.7273 9.51117 9.55846 2.04451 13.1325 0.444505C15.3766 -0.799939 18.5351 1.06673 21.1948 4.53339Z" fill="#3F3B3D"/>
<path d="M10.1403 16.8891C8.39484 12.0002 8.22861 7.11129 9.55848 4.26685C7.97926 5.24462 6.73251 9.24462 7.97926 14.6668C6.06757 15.8224 5.15329 16.178 3.15848 15.6446C1.57926 15.2002 0.997442 13.5113 0.914325 13.6891C-0.498662 16.6224 2.65978 18.8446 4.48835 18.7557C4.32212 21.8668 2.49355 23.5557 1.66238 24.7113C0.664974 26.3113 0.415623 28.3557 0.24939 31.1113C0.24939 31.5557 0.581857 32.4446 1.57926 31.9113C2.16108 31.5557 2.16108 29.0668 3.32471 28.0891C4.32212 27.2002 4.7377 27.2891 6.64939 26.578C8.81043 25.6891 10.7221 24.2668 10.8884 22.4002C10.9715 22.578 11.2208 22.9335 11.3871 23.2002C14.0468 27.2891 16.2078 26.578 16.2078 26.578C13.5481 24.4446 11.5533 20.7113 10.1403 16.8891Z" fill="#3F3B3D"/>
<path d="M32.2493 4.44452C32.4156 3.82229 32.748 2.31118 32.0831 1.77785C31.7506 1.60007 31.335 2.57785 30.3376 3.20007C30.8363 3.28896 31.7506 3.73341 32.2493 4.44452Z" fill="#3F3B3D"/>
<path d="M33.6624 20.7999C32.1663 20.7999 28.1766 19.9999 26.0987 16.7999C24.1039 13.5999 26.265 10.1333 29.9221 11.1999C35.6572 12.8888 35.9065 9.68883 35.7403 8.62216C34.0779 7.99994 32.8312 7.82216 32.665 6.66661C32.1663 4.17772 29.9221 3.99994 29.3403 3.64438C29.2572 3.19994 28.7585 1.24438 27.7611 1.24438C27.2624 1.24438 27.6779 3.28883 26.1818 4.71105C21.4442 6.66661 16.7065 9.1555 12.6338 11.7333C12.8 13.1555 13.2156 14.6666 13.8805 16.1777C14.3792 17.6888 15.1273 19.111 15.7922 20.2666C16.7896 20.2666 18.0364 20.2666 19.6156 20.3555C24.9351 20.5333 28.8416 23.5555 33.5792 22.7555C34.6598 22.3111 34.4104 20.8888 33.6624 20.7999ZM30.5039 6.22216C30.8364 6.22216 30.9195 6.39994 30.9195 6.7555C30.9195 7.11105 30.7533 7.19994 30.4208 7.19994C30.0883 7.19994 30.0052 7.02216 30.0052 6.66661C30.1715 6.48883 30.3377 6.22216 30.5039 6.22216Z" fill="#3F3B3D"/>
</g>
<defs>
<clipPath id="clip0_1_181">
<rect width="128" height="32" fill="white"/>
</clipPath>
</defs>
</svg>
