<svg width="90" height="31" viewBox="0 0 90 31" fill="none" xmlns="http://www.w3.org/2000/svg">
<path d="M0 0H90L82.9182 15.5L90 31H0V0Z" fill="#EB5757"/>
<path d="M17.128 21.0801C16.8827 21.0801 16.6853 21.0054 16.536 20.8561C16.3867 20.7068 16.312 20.5041 16.312 20.2481V10.5201C16.312 10.2748 16.3813 10.0828 16.52 9.94414C16.6693 9.79481 16.872 9.72014 17.128 9.72014H20.984C22.1787 9.72014 23.1067 10.0134 23.768 10.6001C24.4293 11.1868 24.76 12.0188 24.76 13.0961C24.76 14.1628 24.4293 14.9948 23.768 15.5921C23.1067 16.1894 22.1787 16.4881 20.984 16.4881H17.96V20.2481C17.96 20.5041 17.8853 20.7068 17.736 20.8561C17.5973 21.0054 17.3947 21.0801 17.128 21.0801ZM20.808 15.1601C22.3867 15.1601 23.176 14.4721 23.176 13.0961C23.176 11.7308 22.3867 11.0481 20.808 11.0481H17.96V15.1601H20.808ZM29.6839 21.1121C28.9159 21.1121 28.2385 20.9468 27.6519 20.6161C27.0759 20.2854 26.6279 19.8161 26.3079 19.2081C25.9985 18.5894 25.8439 17.8748 25.8439 17.0641C25.8439 16.2428 25.9985 15.5281 26.3079 14.9201C26.6279 14.3014 27.0759 13.8268 27.6519 13.4961C28.2385 13.1654 28.9159 13.0001 29.6839 13.0001C30.4519 13.0001 31.1239 13.1654 31.6999 13.4961C32.2865 13.8268 32.7345 14.3014 33.0439 14.9201C33.3639 15.5281 33.5239 16.2428 33.5239 17.0641C33.5239 17.8748 33.3639 18.5894 33.0439 19.2081C32.7345 19.8161 32.2865 20.2854 31.6999 20.6161C31.1239 20.9468 30.4519 21.1121 29.6839 21.1121ZM29.6839 19.8321C30.3985 19.8321 30.9425 19.5974 31.3159 19.1281C31.6999 18.6588 31.8919 17.9708 31.8919 17.0641C31.8919 16.1681 31.6999 15.4854 31.3159 15.0161C30.9319 14.5361 30.3879 14.2961 29.6839 14.2961C28.9799 14.2961 28.4359 14.5361 28.0519 15.0161C27.6679 15.4854 27.4759 16.1681 27.4759 17.0641C27.4759 17.9708 27.6625 18.6588 28.0359 19.1281C28.4199 19.5974 28.9692 19.8321 29.6839 19.8321ZM39.5151 13.0001C40.1871 13.0001 40.7845 13.1708 41.3071 13.5121C41.8405 13.8534 42.2511 14.3334 42.5391 14.9521C42.8378 15.5708 42.9871 16.2854 42.9871 17.0961C42.9871 17.8961 42.8431 18.6001 42.5551 19.2081C42.2671 19.8161 41.8565 20.2854 41.3231 20.6161C40.8005 20.9468 40.1978 21.1121 39.5151 21.1121C38.9285 21.1121 38.4111 20.9894 37.9631 20.7441C37.5151 20.4881 37.1738 20.1254 36.9391 19.6561V23.2241C36.9391 23.4481 36.8645 23.6241 36.7151 23.7521C36.5765 23.8908 36.3898 23.9601 36.1551 23.9601C35.9098 23.9601 35.7071 23.8908 35.5471 23.7521C35.3978 23.6134 35.3231 23.4268 35.3231 23.1921V13.8161C35.3231 13.5814 35.3978 13.3948 35.5471 13.2561C35.6965 13.1068 35.8938 13.0321 36.1391 13.0321C36.3738 13.0321 36.5658 13.1068 36.7151 13.2561C36.8645 13.3948 36.9391 13.5814 36.9391 13.8161V14.4721C37.1738 14.0028 37.5151 13.6401 37.9631 13.3841C38.4111 13.1281 38.9285 13.0001 39.5151 13.0001ZM39.1311 19.8321C39.8351 19.8321 40.3791 19.5974 40.7631 19.1281C41.1471 18.6481 41.3391 17.9708 41.3391 17.0961C41.3391 16.2108 41.1418 15.5228 40.7471 15.0321C40.3631 14.5414 39.8245 14.2961 39.1311 14.2961C38.4271 14.2961 37.8831 14.5361 37.4991 15.0161C37.1258 15.4961 36.9391 16.1788 36.9391 17.0641C36.9391 17.9494 37.1258 18.6321 37.4991 19.1121C37.8831 19.5921 38.4271 19.8321 39.1311 19.8321ZM50.8243 13.0321C51.0696 13.0321 51.2616 13.1014 51.4003 13.2401C51.5496 13.3788 51.6243 13.5708 51.6243 13.8161V20.3281C51.6243 20.5521 51.5496 20.7334 51.4003 20.8721C51.2509 21.0108 51.0536 21.0801 50.8083 21.0801C50.5843 21.0801 50.4029 21.0161 50.2643 20.8881C50.1256 20.7494 50.0563 20.5681 50.0563 20.3441V19.7361C49.8109 20.1841 49.4696 20.5254 49.0323 20.7601C48.6056 20.9948 48.1256 21.1121 47.5923 21.1121C45.6936 21.1121 44.7443 20.0668 44.7443 17.9761V13.8161C44.7443 13.5708 44.8136 13.3788 44.9523 13.2401C45.1016 13.1014 45.3043 13.0321 45.5603 13.0321C45.8056 13.0321 45.9976 13.1014 46.1363 13.2401C46.2856 13.3788 46.3603 13.5708 46.3603 13.8161V17.9601C46.3603 18.5894 46.4883 19.0534 46.7443 19.3521C47.0003 19.6508 47.3949 19.8001 47.9283 19.8001C48.5576 19.8001 49.0589 19.5974 49.4323 19.1921C49.8163 18.7868 50.0083 18.2481 50.0083 17.5761V13.8161C50.0083 13.5814 50.0829 13.3948 50.2323 13.2561C50.3816 13.1068 50.5789 13.0321 50.8243 13.0321ZM54.7016 21.0801C54.467 21.0801 54.2696 21.0161 54.1096 20.8881C53.9603 20.7601 53.8856 20.5681 53.8856 20.3121V10.4241C53.8856 10.1681 53.9603 9.97614 54.1096 9.84814C54.2696 9.70947 54.467 9.64014 54.7016 9.64014C54.9363 9.64014 55.1283 9.70947 55.2776 9.84814C55.427 9.97614 55.5016 10.1681 55.5016 10.4241V20.3121C55.5016 20.5681 55.427 20.7601 55.2776 20.8881C55.1283 21.0161 54.9363 21.0801 54.7016 21.0801ZM61.0406 13.0001C62.0753 13.0001 62.8433 13.2614 63.3446 13.7841C63.8566 14.3068 64.1126 15.1014 64.1126 16.1681V20.3121C64.1126 20.5574 64.0433 20.7494 63.9046 20.8881C63.766 21.0161 63.574 21.0801 63.3286 21.0801C63.094 21.0801 62.9073 21.0108 62.7686 20.8721C62.63 20.7334 62.5606 20.5468 62.5606 20.3121V19.7201C62.358 20.1681 62.054 20.5148 61.6486 20.7601C61.254 20.9948 60.79 21.1121 60.2566 21.1121C59.7446 21.1121 59.2753 21.0108 58.8486 20.8081C58.4326 20.5948 58.102 20.3068 57.8566 19.9441C57.6113 19.5814 57.4886 19.1708 57.4886 18.7121C57.478 18.1361 57.622 17.6881 57.9206 17.3681C58.2193 17.0374 58.7046 16.8028 59.3766 16.6641C60.0486 16.5148 60.982 16.4401 62.1766 16.4401H62.5446V15.9761C62.5446 15.3788 62.422 14.9468 62.1766 14.6801C61.9313 14.4134 61.5366 14.2801 60.9926 14.2801C60.6193 14.2801 60.2673 14.3281 59.9366 14.4241C59.606 14.5201 59.2433 14.6588 58.8486 14.8401C58.5606 15.0001 58.358 15.0801 58.2406 15.0801C58.0806 15.0801 57.9473 15.0214 57.8406 14.9041C57.7446 14.7868 57.6966 14.6374 57.6966 14.4561C57.6966 14.2961 57.7393 14.1574 57.8246 14.0401C57.9206 13.9121 58.07 13.7894 58.2726 13.6721C58.646 13.4694 59.0833 13.3094 59.5846 13.1921C60.086 13.0641 60.5713 13.0001 61.0406 13.0001ZM60.5446 19.9121C61.1313 19.9121 61.6113 19.7148 61.9846 19.3201C62.358 18.9148 62.5446 18.3974 62.5446 17.7681V17.3521H62.2566C61.4246 17.3521 60.7846 17.3894 60.3366 17.4641C59.8886 17.5388 59.5686 17.6668 59.3766 17.8481C59.1846 18.0188 59.0886 18.2694 59.0886 18.6001C59.0886 18.9841 59.2273 19.2988 59.5046 19.5441C59.782 19.7894 60.1286 19.9121 60.5446 19.9121ZM70.4191 13.0321C70.9311 13.0001 71.1871 13.2188 71.1871 13.6881C71.1871 13.9228 71.1285 14.0988 71.0111 14.2161C70.8938 14.3334 70.6911 14.4028 70.4031 14.4241L69.9231 14.4721C69.2511 14.5361 68.7498 14.7708 68.4191 15.1761C68.0991 15.5814 67.9391 16.0721 67.9391 16.6481V20.3121C67.9391 20.5681 67.8645 20.7601 67.7151 20.8881C67.5658 21.0161 67.3738 21.0801 67.1391 21.0801C66.9045 21.0801 66.7071 21.0161 66.5471 20.8881C66.3978 20.7601 66.3231 20.5681 66.3231 20.3121V13.8001C66.3231 13.5548 66.3978 13.3681 66.5471 13.2401C66.7071 13.1014 66.9045 13.0321 67.1391 13.0321C67.3525 13.0321 67.5285 13.1014 67.6671 13.2401C67.8165 13.3681 67.8911 13.5494 67.8911 13.7841V14.5521C68.1045 14.0828 68.4138 13.7254 68.8191 13.4801C69.2245 13.2348 69.6831 13.0908 70.1951 13.0481L70.4191 13.0321Z" fill="white"/>
</svg>
