<svg width="25" height="25" viewBox="0 0 25 25" fill="none" xmlns="http://www.w3.org/2000/svg">
<g clip-path="url(#clip0_1_218)">
<path d="M4.91366e-06 16.4252C-0.0331666 16.1267 0.0829334 15.8945 0.348305 15.7286L23.6595 0.179544C23.7922 0.08003 23.9414 0.0302734 24.1073 0.0302734C24.2732 0.0302734 24.4224 0.08003 24.5551 0.179544C24.8039 0.345401 24.9117 0.602478 24.8785 0.950778L20.9975 24.2868C20.9311 24.5024 20.7985 24.6766 20.5994 24.8093C20.4833 24.8756 20.3589 24.9088 20.2262 24.9088C20.1267 24.9088 20.0272 24.8922 19.9277 24.8591L12.3895 21.8488L10.7973 24.5107C10.6314 24.7761 10.3992 24.9088 10.1007 24.9088C9.80214 24.9088 9.57824 24.7761 9.42896 24.5107L6.56795 19.5101L0.497576 17.0969C0.199033 16.9643 0.0331763 16.7404 4.91366e-06 16.4252ZM2.4381 16.1516L7.14015 18.0672C7.1733 18.1004 7.21479 18.1252 7.26452 18.1418L7.33916 18.1916L20.4501 4.16012L2.4381 16.1516ZM7.93625 18.7389L10.1007 22.5204L22.6395 2.94106L7.93625 18.7389ZM12.489 20.2814C12.6881 20.3146 12.8539 20.3477 12.9866 20.3809L19.5794 23.0678L22.6892 4.45866L12.489 20.2814Z" fill="black"/>
</g>
<defs>
<clipPath id="clip0_1_218">
<rect width="25" height="25" fill="white"/>
</clipPath>
</defs>
</svg>
