<svg width="25" height="25" viewBox="0 0 25 25" fill="none" xmlns="http://www.w3.org/2000/svg">
<path d="M19.3811 15.9378C18.1372 15.9378 17.0063 16.5032 16.2147 17.2948L10.2213 13.7892C10.2213 13.3368 10.3344 12.9976 10.3344 12.5452C10.3344 12.0929 10.2213 11.7536 10.1082 11.3013L16.1017 7.79568C17.0063 8.58731 18.1372 9.1527 19.3811 9.1527C21.869 9.1527 23.9045 7.11718 23.9045 4.62932C23.9045 2.14147 21.869 0.105957 19.3811 0.105957C16.8932 0.105957 14.8577 2.14147 14.8577 4.62932C14.8577 5.08169 14.9708 5.42094 15.0839 5.87325L8.97733 9.37887C8.18574 8.58728 7.05493 8.02185 5.81097 8.02185C3.32311 8.02185 1.2876 10.0574 1.2876 12.5452C1.2876 15.0331 3.32311 17.0686 5.81097 17.0686C7.0549 17.0686 8.18574 16.5032 8.97733 15.7116L14.9708 19.2172C14.9708 19.6696 14.8577 20.0088 14.8577 20.4611C14.8577 22.949 16.8932 24.9845 19.3811 24.9845C21.8689 24.9845 23.9044 22.949 23.9044 20.4611C23.9044 17.9733 21.8689 15.9378 19.3811 15.9378H19.3811ZM19.3811 2.36766C20.625 2.36766 21.6428 3.38543 21.6428 4.62932C21.6428 5.87325 20.625 6.89101 19.3811 6.89101C18.1372 6.89101 17.1194 5.87325 17.1194 4.62932C17.1194 3.38543 18.1372 2.36766 19.3811 2.36766ZM5.811 14.8069C4.56707 14.8069 3.54932 13.7892 3.54932 12.5452C3.54932 11.3013 4.56707 10.2836 5.811 10.2836C7.05493 10.2836 8.07269 11.3013 8.07269 12.5452C8.07269 13.7892 7.05493 14.8069 5.811 14.8069ZM19.3811 22.7228C18.1372 22.7228 17.1194 21.7051 17.1194 20.4611C17.1194 20.0088 17.2325 19.6695 17.4587 19.3303C17.7979 18.6518 18.5895 18.1995 19.3811 18.1995C20.625 18.1995 21.6428 19.2172 21.6428 20.4611C21.6428 21.705 20.625 22.7228 19.3811 22.7228V22.7228Z" fill="black"/>
</svg>
