<svg width="128" height="32" viewBox="0 0 128 32" fill="none" xmlns="http://www.w3.org/2000/svg">
<path d="M3.87283 0.711182L10.6339 24.0001L16.6072 3.02229L22.7118 24.089L29.2759 0.711182H31.1139L22.3836 31.6445H21.2677L15.6882 12.4445L10.3056 31.5556H8.99283L0.131287 0.711182H3.87283Z" fill="#3F3B3D"/>
<path d="M38.9251 0L49.559 31.2889H45.6862L42.2072 21.0667H32.5579L29.0133 31.2889H27.1097L38.0062 0H38.9251ZM33.2144 19.1111H41.5508L37.4154 7.11111L33.2144 19.1111Z" fill="#3F3B3D"/>
<path d="M53.0379 0.711182H56.7795V29.3334H68.1354V31.289H52.9723V0.711182H53.0379Z" fill="#3F3B3D"/>
<path d="M105.223 0.711182V2.66674H93.3416V13.689H101.284V15.6445H93.3416V29.3334H105.223V31.289H89.4688V0.711182H105.223Z" fill="#3F3B3D"/>
<path d="M109.227 0.711182H111.327L126.096 23.1112H126.228V0.711182H127.869V32.0001H127.081L111.065 7.20007H110.933V31.3778H109.161L109.227 0.711182Z" fill="#3F3B3D"/>
<path d="M84.9395 9.42231C84.2831 7.55565 83.3641 5.77787 82.0513 4.35565C80.9354 3.1112 79.4913 2.13343 77.8503 1.5112C76.2092 0.888981 74.1744 0.622314 71.8113 0.622314H64.2626V24.8001H68.1354V2.93343H72.2051C73.5836 2.93343 74.8308 3.20009 75.881 3.9112C77.0626 4.53343 77.9815 5.42231 78.7692 6.57787C79.5569 7.73343 80.2133 9.15565 80.6728 10.6668C81.1323 12.2668 81.3292 14.0445 81.3292 15.9112C81.3292 18.0445 81.1323 19.9112 80.6072 21.6001C80.0821 23.289 79.4256 24.6223 78.638 25.689C77.7846 26.7556 76.8 27.6445 75.6841 28.2668C74.5026 28.889 73.3867 29.1556 72.0739 29.1556H71.4174V31.3779H72.6646C74.7651 31.3779 76.6687 31.0223 78.2441 30.1334C79.8195 29.3334 81.198 28.1779 82.3795 26.7556C83.4954 25.4223 84.3487 23.7334 84.9395 21.7779C85.5303 19.9112 85.7928 17.8668 85.7928 15.7334C85.8585 13.4223 85.5959 11.3779 84.9395 9.42231Z" fill="#3F3B3D"/>
</svg>
